<?xml version="1.0" standalone="no"?><!DOCTYPE svg PUBLIC "-//W3C//DTD SVG 1.1//EN" "http://www.w3.org/Graphics/SVG/1.1/DTD/svg11.dtd"><svg class="icon" width="200px" height="200.00px" viewBox="0 0 1024 1024" version="1.1" xmlns="http://www.w3.org/2000/svg"><path d="M64 836.064l165.216-165.216 123.936 123.904L187.904 960z" fill="#E0EBFE" /><path d="M206.624 648.224L41.376 813.44a32 32 0 0 0 0 45.248l123.936 123.936a31.904 31.904 0 0 0 45.248 0l165.216-165.248a31.712 31.712 0 0 0 1.6-42.88l264.96-264.96 65.024 65.056c42.4 42.368 116.736 42.336 159.104 0l92.672-92.704a112.64 112.64 0 0 0 0-159.104l-65.024-65.024 0.704-0.704c16.32-16.32 25.312-38.08 25.312-61.28a86.08 86.08 0 0 0-25.312-61.248l-5.344-5.344c-32.64-32.64-89.92-32.64-122.528 0l-0.672 0.704-65.024-65.024c-42.4-42.368-116.768-42.368-159.136 0l-92.704 92.672a112.704 112.704 0 0 0 0 159.136l65.056 64.992-264.96 264.96a31.712 31.712 0 0 0-42.88 1.6z m-18.688 266.528l-78.688-78.688 120-120 78.656 78.72-120 119.968z m394.4-510.464a32 32 0 0 0 0-45.248l-87.648-87.648a48.576 48.576 0 0 1 0-68.608l92.672-92.672c18.24-18.176 50.4-18.176 68.608 0l87.68 87.648a32 32 0 0 0 45.216 0l23.36-23.328a23.36 23.36 0 0 1 32 0l5.344 5.344c4.224 4.256 6.56 9.92 6.56 16s-2.336 11.776-6.592 16l-23.296 23.36a32 32 0 0 0 0 45.248l87.68 87.648c18.88 18.912 18.88 49.696 0 68.608l-92.704 92.672c-18.176 18.24-50.432 18.24-68.608 0l-87.68-87.648a32 32 0 0 0-45.216 0l-287.2 287.2-37.376-37.376 287.2-287.2z" fill="#5465CF" /><path d="M562.624 170.24l-45.216 45.216a30.624 30.624 0 0 0 0 43.264l30.976 31.008a15.936 15.936 0 0 0 22.624 0 16 16 0 0 0 0-22.624l-30.976-29.024 45.216-45.184a16 16 0 1 0-22.624-22.624z" fill="#5465CF" /></svg>